<svg width="500" height="500" viewBox="0 0 500 500" fill="none" xmlns="http://www.w3.org/2000/svg">
<path d="M122.108 67.3515C113.547 55.1244 116.46 38.1277 129.54 30.9353C172.244 7.45188 221.08 -3.13441 270.05 0.805607C328.038 5.47125 382.584 30.2144 424.291 70.7726C465.998 111.331 492.254 165.165 498.537 223C504.82 280.836 490.736 339.052 458.712 387.62C426.687 436.188 378.727 472.067 323.093 489.076C267.459 506.085 207.635 503.159 153.926 480.803C100.218 458.446 55.9876 418.058 28.8551 366.597C5.94248 323.139 -3.56565 274.082 1.19553 225.58C2.65376 210.724 17.1282 201.351 31.7393 204.403L91.3972 216.866C106.008 219.919 115.088 234.298 115.002 249.225C114.876 271.292 120.162 293.199 130.582 312.962C145.233 340.751 169.118 362.561 198.12 374.633C227.123 386.706 259.428 388.286 289.47 379.101C319.512 369.916 345.411 350.542 362.704 324.315C379.998 298.088 387.603 266.651 384.21 235.42C380.817 204.189 366.639 175.119 344.117 153.217C321.595 131.316 292.141 117.955 260.827 115.435C238.557 113.643 216.339 117.415 196.106 126.224C182.42 132.183 165.627 129.503 157.065 117.275L122.108 67.3515Z" fill="url(#paint0_angular_11_7)"/>
<path d="M207.369 189.117C198.808 176.89 201.749 159.63 215.8 154.593C229.256 149.77 243.678 147.813 258.128 148.975C281.637 150.867 303.75 160.898 320.658 177.34C337.567 193.783 348.211 215.607 350.758 239.054C353.306 262.501 347.596 286.102 334.613 305.792C321.63 325.482 302.187 340.027 279.632 346.923C257.078 353.818 232.825 352.632 211.051 343.569C189.277 334.505 171.346 318.132 160.347 297.269C153.585 284.445 149.703 270.418 148.836 256.151C147.929 241.252 162.635 231.749 177.246 234.801L183.18 236.041C207.153 241.049 224.893 214.144 210.846 194.083L207.369 189.117Z" fill="#2C3E50"/>
<defs>
<radialGradient id="paint0_angular_11_7" cx="0" cy="0" r="1" gradientUnits="userSpaceOnUse" gradientTransform="translate(250 250) rotate(38.6598) scale(259.586)">
<stop stop-color="#DE4B7A"/>
<stop offset="0.770833" stop-color="#D048B4"/>
</radialGradient>
</defs>
</svg>
